<?xml version="1.0" encoding="utf-8"?>
<!-- Generator: Adobe Illustrator 17.0.0, SVG Export Plug-In . SVG Version: 6.00 Build 0)  -->
<!DOCTYPE svg PUBLIC "-//W3C//DTD SVG 1.1//EN" "http://www.w3.org/Graphics/SVG/1.1/DTD/svg11.dtd">
<svg version="1.1" id="Capa_1" xmlns="http://www.w3.org/2000/svg" xmlns:xlink="http://www.w3.org/1999/xlink" x="0px" y="0px"
	 width="400px" height="400px" viewBox="0 0 400 400" enable-background="new 0 0 400 400" xml:space="preserve">
<g>
	<path fill="#B0BABF" d="M156.557,213.408c-1.314,0-2.424-0.455-3.333-1.364c-0.909-0.908-1.364-2.019-1.364-3.332
		c0-1.312,0.455-2.425,1.364-3.333c0.909-0.909,2.019-1.364,3.333-1.364h27.421c1.413,0,2.523,0.48,3.333,1.439
		c0.807,0.961,1.212,2.098,1.212,3.409c0,0.203-0.026,0.404-0.076,0.605c-0.052,0.204-0.076,0.405-0.076,0.606
		c-1.113,5.454-3.106,10.529-5.984,15.226s-6.415,8.737-10.605,12.12c-4.192,3.385-8.915,6.036-14.166,7.953
		c-5.252,1.92-10.756,2.879-16.513,2.879c-6.666,0-12.93-1.262-18.786-3.787c-5.859-2.523-10.96-5.959-15.301-10.303
		c-4.344-4.341-7.779-9.442-10.302-15.301c-2.526-5.856-3.788-12.12-3.788-18.786s1.262-12.928,3.788-18.786
		c2.523-5.856,5.958-10.983,10.302-15.377c4.341-4.394,9.442-7.853,15.301-10.378c5.856-2.523,12.12-3.788,18.786-3.788
		c8.079,0,15.529,1.818,22.346,5.454c6.817,3.637,12.397,8.484,16.741,14.544c0.706,1.113,1.061,2.174,1.061,3.182
		c0,1.011-0.405,1.996-1.212,2.954c-0.81,0.961-1.92,1.439-3.333,1.439c-0.708,0-1.439-0.151-2.197-0.454
		c-0.758-0.304-1.439-0.857-2.045-1.667c-4.848-5.655-9.949-9.745-15.301-12.271c-5.355-2.523-10.707-3.787-16.059-3.787
		c-5.354,0-10.404,1.011-15.15,3.03c-4.749,2.021-8.863,4.798-12.348,8.332c-3.484,3.536-6.237,7.677-8.256,12.423
		c-2.022,4.749-3.03,9.798-3.03,15.15c0,5.354,1.008,10.403,3.03,15.149c2.019,4.749,4.772,8.863,8.256,12.348
		c3.485,3.484,7.599,6.237,12.348,8.257c4.746,2.021,9.795,3.03,15.15,3.03c4.242,0,8.257-0.63,12.044-1.895
		c3.788-1.262,7.272-3.004,10.454-5.227c3.182-2.221,5.958-4.897,8.333-8.029c2.372-3.13,4.266-6.564,5.681-10.302H156.557z"/>
	<path fill="#B0BABF" d="M199.734,179.472c0-1.312,0.455-2.424,1.363-3.333c0.909-0.909,2.02-1.363,3.333-1.363
		c1.312,0,2.424,0.454,3.333,1.363c0.909,0.909,1.364,2.021,1.364,3.333v41.512c0,2.424,0.478,4.722,1.439,6.893
		c0.959,2.173,2.247,4.067,3.863,5.682c1.615,1.616,3.508,2.878,5.681,3.787c2.171,0.909,4.469,1.363,6.894,1.363
		c2.424,0,4.696-0.454,6.817-1.363s3.963-2.121,5.53-3.636c1.564-1.515,2.826-3.307,3.787-5.378c0.959-2.069,1.49-4.266,1.592-6.591
		v-42.269c0-1.312,0.453-2.424,1.363-3.333c0.908-0.909,2.02-1.363,3.332-1.363s2.424,0.454,3.334,1.363
		c0.908,0.909,1.363,2.021,1.363,3.333v64.085c0,1.313-0.455,2.424-1.363,3.333c-0.91,0.909-2.021,1.363-3.334,1.363
		s-2.424-0.454-3.332-1.363c-0.91-0.909-1.363-2.02-1.363-3.333v-1.97c-2.325,2.021-5,3.636-8.03,4.848
		c-3.03,1.212-6.264,1.818-9.696,1.818c-3.738,0-7.272-0.705-10.605-2.121c-3.333-1.413-6.238-3.356-8.711-5.833
		c-2.476-2.474-4.419-5.378-5.833-8.711c-1.416-3.333-2.121-6.867-2.121-10.604V179.472z"/>
	<path fill="#B0BABF" d="M263.667,193.864c0-3.534,0.706-6.515,2.121-8.938c1.414-2.424,3.281-4.394,5.605-5.908
		c2.322-1.516,4.948-2.6,7.878-3.258c2.929-0.655,5.856-0.984,8.787-0.984c2.425,0,5,0.279,7.727,0.833
		c2.728,0.557,5.251,1.39,7.575,2.5c2.322,1.112,4.242,2.477,5.757,4.091c1.516,1.616,2.272,3.536,2.272,5.757
		c0,1.112-0.379,2.196-1.136,3.257c-0.758,1.061-1.996,1.591-3.712,1.591c-1.92,0-3.385-1.11-4.394-3.333
		c-0.909-1.917-2.678-3.356-5.303-4.317c-2.627-0.959-5.556-1.439-8.787-1.439c-1.718,0-3.461,0.128-5.227,0.379
		c-1.769,0.253-3.358,0.758-4.772,1.515c-1.415,0.758-2.602,1.795-3.56,3.106c-0.961,1.313-1.439,3.029-1.439,5.15
		c0,1.516,0.479,2.829,1.439,3.939c0.958,1.112,2.171,2.045,3.636,2.803c1.463,0.757,3.08,1.34,4.848,1.742
		c1.767,0.404,3.459,0.757,5.075,1.061c3.735,0.605,7.246,1.491,10.529,2.651c3.281,1.162,6.16,2.651,8.636,4.469
		c2.474,1.818,4.443,3.991,5.908,6.515c1.463,2.525,2.197,5.454,2.197,8.787s-0.708,6.389-2.121,9.166
		c-1.416,2.778-3.359,5.15-5.833,7.12c-2.476,1.97-5.378,3.484-8.711,4.545s-6.87,1.591-10.605,1.591
		c-6.362,0-11.944-1.463-16.74-4.394c-4.799-2.928-8.006-6.969-9.62-12.12c-0.103-0.303-0.151-0.758-0.151-1.363
		c0-1.312,0.428-2.474,1.287-3.484c0.857-1.009,1.993-1.516,3.409-1.516c1.11,0,2.095,0.329,2.954,0.985
		c0.856,0.658,1.539,1.541,2.045,2.651c1.312,3.233,3.561,5.681,6.742,7.348c3.182,1.666,6.538,2.5,10.074,2.5
		c4.948,0,9.166-1.137,12.65-3.409s5.227-5.478,5.227-9.62c0-3.333-1.718-6.159-5.15-8.484c-3.435-2.322-7.677-3.837-12.727-4.545
		c-7.271-1.008-13.156-3.004-17.649-5.984C265.914,203.84,263.667,199.522,263.667,193.864z"/>
</g>
</svg>
